<?xml version="1.0" encoding="iso-8859-1"?>
<!-- Uploaded to: SVG Repo, www.svgrepo.com, Generator: SVG Repo Mixer Tools -->
<svg fill="#000000" height="800px" width="800px" version="1.1" id="Layer_1" xmlns="http://www.w3.org/2000/svg" xmlns:xlink="http://www.w3.org/1999/xlink" 
	 viewBox="0 0 447 447" xml:space="preserve">
<g>
	<g>
		<g>
			<path d="M381.538,65.461C339.325,23.248,283.199,0,223.5,0C163.801,0,107.675,23.248,65.462,65.461
				C23.248,107.675,0,163.801,0,223.5c0,59.699,23.248,115.825,65.462,158.039C107.675,423.752,163.801,447,223.5,447
				c59.699,0,115.825-23.248,158.038-65.461C423.752,339.325,447,283.199,447,223.5C447,163.801,423.752,107.675,381.538,65.461z
				 M223.5,432C108.532,432,15,338.467,15,223.5S108.532,15,223.5,15S432,108.533,432,223.5S338.468,432,223.5,432z"/>
			<path d="M223.5,32C117.906,32,32,117.907,32,223.5S117.906,415,223.5,415S415,329.093,415,223.5S329.094,32,223.5,32z M223.5,400
				C126.178,400,47,320.822,47,223.5S126.178,47,223.5,47S400,126.178,400,223.5S320.822,400,223.5,400z"/>
			<path d="M223.5,95c4.143,0,7.5-3.358,7.5-7.5v-16c0-4.142-3.357-7.5-7.5-7.5s-7.5,3.358-7.5,7.5v16
				C216,91.642,219.357,95,223.5,95z"/>
			<path d="M223.5,352c-4.143,0-7.5,3.358-7.5,7.5v16c0,4.142,3.357,7.5,7.5,7.5s7.5-3.358,7.5-7.5v-16
				C231,355.358,227.643,352,223.5,352z"/>
			<path d="M223.5,192c-5.972,0-11.561,1.67-16.324,4.569l-42.372-42.372c-2.93-2.929-7.678-2.929-10.607,0
				c-2.929,2.929-2.929,7.678,0,10.606l42.372,42.372C193.67,211.939,192,217.528,192,223.5c0,14.785,10.241,27.216,24,30.591V327.5
				c0,4.142,3.357,7.5,7.5,7.5s7.5-3.358,7.5-7.5v-73.409c13.759-3.374,24-15.806,24-30.591C255,206.131,240.869,192,223.5,192z
				 M223.5,240c-9.098,0-16.5-7.402-16.5-16.5s7.402-16.5,16.5-16.5s16.5,7.402,16.5,16.5S232.598,240,223.5,240z"/>
			<path d="M375.5,216h-16c-4.143,0-7.5,3.358-7.5,7.5c0,4.142,3.357,7.5,7.5,7.5h16c4.143,0,7.5-3.358,7.5-7.5
				C383,219.358,379.643,216,375.5,216z"/>
			<path d="M95,223.5c0-4.142-3.357-7.5-7.5-7.5h-16c-4.143,0-7.5,3.358-7.5,7.5c0,4.142,3.357,7.5,7.5,7.5h16
				C91.643,231,95,227.642,95,223.5z"/>
			<path d="M109.471,149.005l-13.856-8c-3.589-2.072-8.175-0.842-10.245,2.745c-2.071,3.587-0.842,8.174,2.745,10.245l13.856,8
				c1.182,0.682,2.471,1.006,3.743,1.006c2.592,0,5.113-1.346,6.502-3.751C114.287,155.663,113.058,151.076,109.471,149.005z"/>
			<path d="M358.886,293.005l-13.856-8c-3.59-2.072-8.175-0.842-10.245,2.745c-2.071,3.587-0.842,8.174,2.745,10.245l13.856,8
				c1.182,0.682,2.471,1.006,3.743,1.006c2.592,0,5.113-1.346,6.502-3.751C363.702,299.663,362.473,295.076,358.886,293.005z"/>
			<path d="M303.25,85.369c-3.59-2.072-8.175-0.842-10.245,2.745l-8,13.856c-2.071,3.587-0.842,8.174,2.745,10.245
				c1.182,0.682,2.471,1.006,3.743,1.006c2.592,0,5.113-1.346,6.502-3.751l8-13.856C308.066,92.027,306.837,87.44,303.25,85.369z"/>
			<path d="M159.25,334.784c-3.589-2.072-8.175-0.842-10.245,2.745l-8,13.856c-2.071,3.587-0.842,8.174,2.745,10.245
				c1.182,0.682,2.471,1.006,3.743,1.006c2.592,0,5.113-1.346,6.502-3.751l8-13.856C164.066,341.442,162.837,336.855,159.25,334.784
				z"/>
			<path d="M341.286,163.001c1.272,0,2.563-0.324,3.743-1.006l13.856-8c3.587-2.071,4.816-6.658,2.745-10.245
				c-2.07-3.588-6.66-4.817-10.245-2.745l-13.856,8c-3.587,2.071-4.816,6.658-2.745,10.245
				C336.173,161.656,338.694,163.001,341.286,163.001z"/>
			<path d="M101.971,285.005l-13.856,8c-3.587,2.071-4.816,6.658-2.745,10.245c1.389,2.406,3.91,3.751,6.502,3.751
				c1.272,0,2.563-0.324,3.743-1.006l13.856-8c3.587-2.071,4.816-6.658,2.745-10.245
				C110.146,284.163,105.556,282.933,101.971,285.005z"/>
			<path d="M149.005,109.471c1.389,2.406,3.91,3.751,6.502,3.751c1.272,0,2.563-0.324,3.743-1.006
				c3.587-2.071,4.816-6.658,2.745-10.245l-8-13.856c-2.07-3.588-6.659-4.817-10.245-2.745c-3.587,2.071-4.816,6.658-2.745,10.245
				L149.005,109.471z"/>
			<path d="M297.995,337.529c-2.071-3.588-6.66-4.816-10.245-2.745c-3.587,2.071-4.816,6.658-2.745,10.245l8,13.856
				c1.389,2.406,3.91,3.751,6.502,3.751c1.272,0,2.563-0.324,3.743-1.006c3.587-2.071,4.816-6.658,2.745-10.245L297.995,337.529z"/>
		</g>
	</g>
</g>
</svg>