<?xml version="1.0" encoding="iso-8859-1"?>
<!-- Uploaded to: SVG Repo, www.svgrepo.com, Generator: SVG Repo Mixer Tools -->
<svg fill="#000000" height="800px" width="800px" version="1.1" id="Capa_1" xmlns="http://www.w3.org/2000/svg" xmlns:xlink="http://www.w3.org/1999/xlink" 
	 viewBox="0 0 54 54" xml:space="preserve">
<g>
	<path d="M46.092,7.908C40.992,2.809,34.212,0,27,0C20.123,0,13.642,2.559,8.632,7.218L8.615,7.201L7.201,8.615l0.018,0.018
		c-9.827,10.574-9.601,27.168,0.689,37.459C13.008,51.191,19.788,54,27,54c6.877,0,13.358-2.559,18.367-7.218l0.018,0.018
		l1.414-1.414l-0.018-0.018C56.608,34.793,56.382,18.198,46.092,7.908z M27,52c-6.678,0-12.956-2.601-17.678-7.322
		c-9.51-9.511-9.736-24.837-0.689-34.631l13.132,13.132H10.73c-0.553,0-1,0.448-1,1s0.447,1,1,1h13.449c0.553,0,1-0.448,1-1v-13.45
		c0-0.552-0.447-1-1-1s-1,0.448-1,1v11.035L10.047,8.632C14.677,4.351,20.657,2,27,2c6.678,0,12.956,2.601,17.678,7.322
		c9.51,9.51,9.736,24.837,0.689,34.631L32.234,30.821h11.036c0.553,0,1-0.448,1-1s-0.447-1-1-1H29.821c-0.553,0-1,0.448-1,1v13.45
		c0,0.552,0.447,1,1,1s1-0.448,1-1V32.236l13.132,13.132C39.323,49.65,33.343,52,27,52z"/>
</g>
</svg>